<?xml version="1.0" encoding="UTF-8"?>
<!DOCTYPE svg PUBLIC "-//W3C//DTD SVG 1.1//EN" "http://www.w3.org/Graphics/SVG/1.1/DTD/svg11.dtd">
<svg xmlns="http://www.w3.org/2000/svg" version="1.1" width="150px" height="150px" style="shape-rendering:geometricPrecision; text-rendering:geometricPrecision; image-rendering:optimizeQuality; fill-rule:evenodd; clip-rule:evenodd" xmlns:xlink="http://www.w3.org/1999/xlink">
<g><path style="opacity:0.882" fill="#43220d" d="M 32.5,99.5 C 33.0431,99.44 33.3764,99.1067 33.5,98.5C 31.2451,93.402 30.2451,88.0687 30.5,82.5C 39.5281,82.6805 48.5281,82.3471 57.5,81.5C 62.3934,80.2042 67.0601,78.5376 71.5,76.5C 74.8497,75.4967 78.183,74.4967 81.5,73.5C 83.1667,73.5 84.8333,73.5 86.5,73.5C 88.5,73.8333 90.5,74.1667 92.5,74.5C 93.6049,75.6005 94.9382,76.2671 96.5,76.5C 99.5497,78.5491 101.883,81.2157 103.5,84.5C 104.15,86.4352 104.483,88.4352 104.5,90.5C 114.496,93.1709 118.162,89.5042 115.5,79.5C 115.968,67.5627 112.301,57.2294 104.5,48.5C 103.008,45.6769 100.674,44.0102 97.5,43.5C 96.7095,42.5987 95.7095,41.9321 94.5,41.5C 91.4501,40.0648 88.1168,39.3981 84.5,39.5C 82.3035,39.5046 80.3035,39.838 78.5,40.5C 76.2495,40.1814 74.2495,40.6814 72.5,42C 80.4668,50.499 80.4668,58.999 72.5,67.5C 67.0267,70.432 61.36,72.7653 55.5,74.5C 49.3428,74.9123 43.1762,75.2456 37,75.5C 31.1922,75.6236 25.5256,74.9569 20,73.5C 21.5725,82.3145 25.0725,90.3145 30.5,97.5C 29.9569,97.56 29.6236,97.8933 29.5,98.5C 34.7499,109.664 32.9166,110.33 24,100.5C 15.7291,90.6326 11.3958,79.2993 11,66.5C 11.804,65.1955 12.9707,64.5288 14.5,64.5C 32.5219,70.4332 50.1886,69.5999 67.5,62C 73.7715,53.3717 71.6049,48.2051 61,46.5C 60.3333,44.8333 60.3333,43.1667 61,41.5C 63.0187,39.2296 65.1854,37.0629 67.5,35C 64.7959,25.3823 68.2959,19.549 78,17.5C 80.1509,17.7725 82.1509,18.4392 84,19.5C 90.0707,16.2152 95.404,17.2152 100,22.5C 104.495,21.2227 108.162,22.5561 111,26.5C 113.548,31.9664 112.714,36.7998 108.5,41C 120.391,55.3893 125.058,71.8893 122.5,90.5C 130.445,91.9336 133.111,96.4336 130.5,104C 136.216,103.77 137.883,106.27 135.5,111.5C 129.123,113.471 129.123,114.638 135.5,115C 138.593,119.1 137.593,121.934 132.5,123.5C 134.592,125.789 134.926,128.289 133.5,131C 93.8333,131.667 54.1667,131.667 14.5,131C 13.0183,128.408 13.3517,126.075 15.5,124C 10.6514,122.639 9.31809,119.639 11.5,115C 13.1667,114.667 14.8333,114.333 16.5,114C 10.7237,112.637 9.39033,109.637 12.5,105C 14.1667,104.333 15.8333,104.333 17.5,105C 25.0428,109.292 33.0428,111.959 41.5,113C 37.8592,108.873 34.8592,104.373 32.5,99.5 Z M 79.5,81.5 C 90.8065,79.0301 96.6399,83.3634 97,94.5C 95.6667,95.8333 94.3333,97.1667 93,98.5C 90.8626,96.5577 88.5292,94.891 86,93.5C 83.8449,94.2442 81.8449,95.2442 80,96.5C 78.7387,96.2409 77.7387,95.5742 77,94.5C 76.8371,92.324 76.0037,90.4907 74.5,89C 71.5144,89.1276 68.5144,89.1276 65.5,89C 64.1667,88.3333 64.1667,87.6667 65.5,87C 70.3671,85.3893 75.0338,83.556 79.5,81.5 Z M 76.5,116.5 C 73.8333,116.5 71.1667,116.5 68.5,116.5C 53.0535,114.722 43.0535,106.388 38.5,91.5C 44.4846,90.4116 50.4846,89.9116 56.5,90C 59.1235,95.3196 63.4569,98.153 69.5,98.5C 73.3162,104.279 78.4828,105.946 85,103.5C 85.9246,104.047 86.7579,104.713 87.5,105.5C 84.7213,107.222 81.7213,108.389 78.5,109C 71.4694,110.359 64.4694,110.859 57.5,110.5C 63.5824,113.598 69.9158,115.598 76.5,116.5 Z M 109.5,97.5 C 114.08,97.2665 118.747,97.5998 123.5,98.5C 121.429,109.06 114.929,114.394 104,114.5C 99.8587,111.992 98.5254,108.326 100,103.5C 102.854,100.198 106.02,98.1976 109.5,97.5 Z"/></g>
<g><path style="opacity:1" fill="#ec0501" d="M 88.5,24.5 C 92.5291,24.0573 94.5291,25.8906 94.5,30C 97.8333,30 101.167,30 104.5,30C 106.35,33.7475 105.183,35.9142 101,36.5C 92.7108,34.0102 84.2108,32.8435 75.5,33C 72.3341,27.4813 74.0008,25.148 80.5,26C 83.7715,29.4189 86.4381,28.9189 88.5,24.5 Z"/></g>
<g><path style="opacity:1" fill="#faf9be" d="M 78.5,40.5 C 79.552,40.3505 80.552,40.5172 81.5,41C 80.1774,51.8332 80.1774,62.6666 81.5,73.5C 78.183,74.4967 74.8497,75.4967 71.5,76.5C 71.3677,73.4299 71.701,70.4299 72.5,67.5C 80.4668,58.999 80.4668,50.499 72.5,42C 74.2495,40.6814 76.2495,40.1814 78.5,40.5 Z"/></g>
<g><path style="opacity:1" fill="#f7f6a3" d="M 78.5,40.5 C 80.3035,39.838 82.3035,39.5046 84.5,39.5C 88.1168,39.3981 91.4501,40.0648 94.5,41.5C 92.744,42.5521 92.0773,44.2188 92.5,46.5C 86.9151,44.5871 85.2484,46.4205 87.5,52C 88.7932,52.49 90.1266,52.6567 91.5,52.5C 90.4324,53.4345 89.099,53.7678 87.5,53.5C 87.7934,60.2554 87.4601,66.9221 86.5,73.5C 84.8333,73.5 83.1667,73.5 81.5,73.5C 80.1774,62.6666 80.1774,51.8332 81.5,41C 80.552,40.5172 79.552,40.3505 78.5,40.5 Z"/></g>
<g><path style="opacity:1" fill="#fcfc81" d="M 94.5,41.5 C 95.7095,41.9321 96.7095,42.5987 97.5,43.5C 96.5054,54.3206 96.1721,65.3206 96.5,76.5C 94.9382,76.2671 93.6049,75.6005 92.5,74.5C 92.5,67.1667 92.5,59.8333 92.5,52.5C 93.8333,50.5 93.8333,48.5 92.5,46.5C 92.0773,44.2188 92.744,42.5521 94.5,41.5 Z"/></g>
<g><path style="opacity:1" fill="#fcfc61" d="M 97.5,43.5 C 100.674,44.0102 103.008,45.6769 104.5,48.5C 103.505,60.3217 103.172,72.3217 103.5,84.5C 101.883,81.2157 99.5497,78.5491 96.5,76.5C 96.1721,65.3206 96.5054,54.3206 97.5,43.5 Z"/></g>
<g><path style="opacity:1" fill="#4a2a11" d="M 92.5,46.5 C 93.8333,48.5 93.8333,50.5 92.5,52.5C 92.1667,52.5 91.8333,52.5 91.5,52.5C 90.1266,52.6567 88.7932,52.49 87.5,52C 85.2484,46.4205 86.9151,44.5871 92.5,46.5 Z"/></g>
<g><path style="opacity:1" fill="#fefe99" d="M 91.5,52.5 C 91.8333,52.5 92.1667,52.5 92.5,52.5C 92.5,59.8333 92.5,67.1667 92.5,74.5C 90.5,74.1667 88.5,73.8333 86.5,73.5C 87.4601,66.9221 87.7934,60.2554 87.5,53.5C 89.099,53.7678 90.4324,53.4345 91.5,52.5 Z"/></g>
<g><path style="opacity:1" fill="#faf930" d="M 104.5,48.5 C 112.301,57.2294 115.968,67.5627 115.5,79.5C 118.162,89.5042 114.496,93.1709 104.5,90.5C 104.483,88.4352 104.15,86.4352 103.5,84.5C 103.172,72.3217 103.505,60.3217 104.5,48.5 Z"/></g>
<g><path style="opacity:1" fill="#f6f5db" d="M 72.5,67.5 C 71.701,70.4299 71.3677,73.4299 71.5,76.5C 67.0601,78.5376 62.3934,80.2042 57.5,81.5C 58.6602,79.7973 57.9935,79.1307 55.5,79.5C 55.1367,77.0885 56.1367,75.5885 58.5,75C 57.552,74.5172 56.552,74.3505 55.5,74.5C 61.36,72.7653 67.0267,70.432 72.5,67.5 Z"/></g>
<g><path style="opacity:0.989" fill="#f5f4f0" d="M 55.5,74.5 C 56.552,74.3505 57.552,74.5172 58.5,75C 56.1367,75.5885 55.1367,77.0885 55.5,79.5C 57.9935,79.1307 58.6602,79.7973 57.5,81.5C 48.5281,82.3471 39.5281,82.6805 30.5,82.5C 30.2451,88.0687 31.2451,93.402 33.5,98.5C 33.3764,99.1067 33.0431,99.44 32.5,99.5C 31.5,99.1667 30.8333,98.5 30.5,97.5C 25.0725,90.3145 21.5725,82.3145 20,73.5C 25.5256,74.9569 31.1922,75.6236 37,75.5C 43.1762,75.2456 49.3428,74.9123 55.5,74.5 Z"/></g>
<g><path style="opacity:0.996" fill="#eae5aa" d="M 84.5,117.5 C 84.1667,116.5 83.5,115.833 82.5,115.5C 85.6153,113.965 88.9486,113.131 92.5,113C 93.8333,113.667 93.8333,114.333 92.5,115C 89.978,116.341 87.3113,117.174 84.5,117.5 Z"/></g>
<g><path style="opacity:0.98" fill="#e5e0d8" d="M 82.5,115.5 C 83.5,115.833 84.1667,116.5 84.5,117.5C 79.5276,118.422 74.5276,118.588 69.5,118C 68.944,117.617 68.6107,117.117 68.5,116.5C 71.1667,116.5 73.8333,116.5 76.5,116.5C 78.4352,115.85 80.4352,115.517 82.5,115.5 Z"/></g>
</svg>
